<svg xmlns="http://www.w3.org/2000/svg" viewBox="0 0 96 96" role="img" aria-label="Assistant IA">
  <path d="M20 45c0-14.4 12.1-25 29-25s29 10.6 29 25-12.1 25-29 25h-8.6L25 82V63.8C21.8 59.2 20 52.7 20 45Z" fill="none" stroke="#ffffff" stroke-width="8" stroke-linecap="round" stroke-linejoin="round"/>
  <path d="M20 45c0-14.4 12.1-25 29-25s29 10.6 29 25-12.1 25-29 25h-8.6L25 82V63.8C21.8 59.2 20 52.7 20 45Z" fill="none" stroke="#f26f2f" stroke-width="3" stroke-linecap="round" stroke-linejoin="round"/>
  <circle cx="38" cy="45" r="3.8" fill="#f26f2f"/>
  <circle cx="49" cy="45" r="3.8" fill="#f26f2f"/>
  <circle cx="60" cy="45" r="3.8" fill="#f26f2f"/>
</svg>
